<?xml version="1.0" standalone="no"?>
<!DOCTYPE svg PUBLIC "-//W3C//DTD SVG 20010904//EN"
 "http://www.w3.org/TR/2001/REC-SVG-20010904/DTD/svg10.dtd">
<svg version="1.0" xmlns="http://www.w3.org/2000/svg"
 width="1548.000000pt" height="1548.000000pt" viewBox="0 0 1548.000000 1548.000000"
 preserveAspectRatio="xMidYMid meet">
<metadata>
Created by potrace 1.14, written by Peter Selinger 2001-2017
</metadata>
<g transform="translate(0.000000,1548.000000) scale(0.100000,-0.100000)"
fill="#000000" stroke="none">
<path d="M7445 13789 c-887 -66 -1724 -374 -2421 -892 -911 -676 -1530 -1649
-1738 -2734 -57 -295 -70 -441 -70 -808 -1 -219 4 -383 12 -460 133 -1204 718
-2262 1671 -3023 147 -118 447 -319 616 -413 326 -182 702 -334 1060 -429 66
-18 121 -33 123 -35 7 -7 462 -1030 462 -1040 0 -6 -24 -27 -52 -46 -186 -120
-358 -356 -422 -581 -43 -148 -47 -223 -44 -678 l3 -425 28 -80 c79 -223 237
-371 477 -447 75 -23 76 -23 625 -23 504 0 555 2 615 18 210 60 368 185 455
362 69 138 70 151 69 625 0 454 -5 518 -51 665 -69 222 -224 434 -404 555 -35
24 -65 44 -67 46 -4 2 457 1036 467 1046 4 4 72 26 153 48 1073 294 1996 959
2605 1875 275 413 484 890 603 1370 268 1085 111 2235 -438 3205 -350 619
-860 1162 -1458 1553 -669 437 -1427 691 -2234 747 -167 11 -484 11 -645 -1z
m574 -249 c95 -6 240 -19 322 -29 l148 -19 149 -101 c1215 -819 1960 -1851
2186 -3026 186 -970 4 -2022 -517 -2999 -359 -674 -877 -1285 -1472 -1736
-211 -160 -466 -317 -715 -439 l-124 -61 -219 0 -219 0 -162 81 c-901 456
-1679 1250 -2186 2232 -531 1029 -681 2132 -429 3140 249 993 885 1883 1869
2618 176 132 396 279 431 289 48 14 282 40 435 49 204 12 309 12 503 1z
m-1644 -229 c-6 -5 -71 -59 -145 -120 -581 -481 -1041 -1036 -1340 -1614 l-45
-87 -113 0 c-247 0 -495 -46 -700 -129 l-53 -21 12 22 c27 50 123 205 178 286
159 236 336 446 562 667 434 424 919 733 1494 951 140 54 168 62 150 45z
m2937 -37 c867 -324 1586 -893 2092 -1654 132 -198 187 -297 160 -286 -232 97
-478 146 -725 146 l-120 0 -15 28 c-8 15 -46 83 -83 152 -304 563 -780 1120
-1354 1581 -54 44 -93 79 -88 79 5 0 65 -21 133 -46z m-4587 -2051 c-149 -371
-240 -725 -290 -1133 -35 -280 -30 -743 11 -1064 8 -65 13 -121 10 -123 -3 -3
-42 -9 -88 -14 -238 -26 -425 -89 -573 -194 -66 -46 -181 -164 -211 -214 -10
-17 -21 -31 -24 -31 -4 0 -16 53 -28 118 -128 701 -83 1385 134 2054 44 134
63 177 98 225 135 180 331 295 602 352 100 21 228 37 318 40 42 1 47 -1 41
-16z m6380 -18 c255 -40 457 -130 601 -267 95 -91 126 -141 175 -284 221 -656
272 -1386 143 -2079 -13 -71 -28 -143 -32 -160 l-8 -30 -33 61 c-79 150 -208
279 -349 352 -134 69 -305 112 -449 112 l-56 0 7 53 c67 537 58 970 -30 1437
-46 245 -138 565 -214 751 -17 40 -30 74 -30 77 0 8 174 -7 275 -23z m225
-2571 c150 -35 279 -125 366 -255 59 -90 98 -190 130 -335 l25 -114 -47 -117
c-159 -400 -399 -802 -684 -1143 -111 -133 -162 -183 -171 -168 -5 7 -9 18 -9
24 0 6 -22 45 -48 85 -104 160 -245 247 -459 284 -48 8 -88 17 -91 19 -2 3 5
17 16 33 45 65 202 350 278 508 168 350 315 760 388 1090 9 39 18 81 22 94 l5
24 107 -7 c59 -3 136 -13 172 -22z m-6814 -21 c65 -282 151 -557 255 -818 79
-200 270 -584 383 -773 47 -78 86 -145 86 -147 0 -3 -11 -5 -23 -5 -44 0 -182
-40 -245 -71 -133 -65 -238 -182 -282 -315 l-22 -65 -25 23 c-14 13 -69 73
-122 133 -337 380 -581 774 -766 1236 l-63 155 8 82 c17 161 66 276 161 372
128 130 355 216 576 219 71 1 73 0 79 -26z m5924 -1975 c151 -36 252 -137 294
-293 l16 -60 -56 -53 c-80 -75 -268 -224 -404 -320 -447 -313 -999 -557 -1530
-676 -61 -14 -64 -14 -40 2 537 366 959 766 1332 1262 91 122 114 146 141 152
40 8 188 0 247 -14z m-4947 -122 c357 -475 770 -876 1247 -1211 69 -48 116
-85 105 -82 -11 3 -69 18 -130 32 -305 74 -613 189 -920 344 -334 169 -550
313 -881 587 -10 8 -11 31 -4 107 11 109 36 171 92 224 66 63 210 110 344 112
l62 1 85 -114z m1657 -1600 c236 -31 362 -39 620 -39 265 -1 422 9 656 42 68
9 124 15 124 13 0 -5 -306 -692 -338 -759 l-16 -33 -22 70 c-40 128 -123 226
-234 279 -49 23 -67 26 -165 26 -102 0 -114 -2 -167 -29 -65 -33 -164 -130
-196 -191 -11 -22 -26 -60 -33 -85 -7 -25 -15 -48 -19 -52 -5 -7 -60 111 -311
675 -38 85 -45 107 -31 103 9 -3 69 -12 132 -20z m696 -665 c44 -27 84 -82 91
-125 l6 -36 -168 0 -167 0 6 33 c21 110 148 180 232 128z m222 -440 c333 -98
564 -383 588 -726 7 -94 -10 -137 -67 -167 -32 -17 -77 -18 -814 -18 -755 0
-781 1 -812 20 -55 33 -68 63 -65 150 8 271 178 541 422 673 153 82 232 97
480 93 164 -3 207 -7 268 -25z m-780 -1159 l362 -3 0 -103 c0 -90 3 -107 23
-137 12 -19 40 -42 61 -53 32 -16 44 -17 75 -7 20 6 48 22 62 37 22 23 24 36
29 142 l5 117 360 5 c198 3 368 9 378 14 18 8 18 -1 15 -205 l-3 -214 -31 -66
c-55 -115 -134 -185 -264 -230 -64 -23 -75 -24 -523 -27 -511 -4 -597 2 -691
46 -129 61 -224 183 -246 317 -5 33 -10 134 -10 224 0 152 1 163 18 155 9 -5
180 -10 380 -12z"/>
<path d="M7665 11829 c-519 -56 -925 -507 -925 -1029 0 -476 316 -885 780
-1012 75 -20 107 -23 265 -22 166 0 187 2 270 27 380 115 643 391 737 774 30
124 31 332 0 455 -33 132 -75 233 -143 338 -212 328 -595 511 -984 469z m292
-269 c242 -58 433 -215 537 -442 47 -102 66 -197 66 -326 0 -711 -869 -1051
-1356 -530 -251 268 -282 671 -76 974 51 76 174 192 249 236 172 101 389 134
580 88z"/>
<path d="M3704 5850 c-35 -14 -82 -76 -89 -119 -15 -87 61 -174 150 -174 151
0 210 195 85 281 -34 23 -104 29 -146 12z"/>
<path d="M11754 5850 c-32 -13 -82 -77 -89 -114 -20 -104 86 -203 187 -176
131 37 160 201 48 278 -34 23 -104 29 -146 12z"/>
<path d="M4103 5163 c-12 -2 -36 -20 -53 -39 -50 -57 -37 -146 27 -190 26 -18
55 -19 443 -22 228 -2 435 0 459 3 90 13 143 106 104 181 -39 75 -34 74 -523
73 -239 -1 -445 -4 -457 -6z"/>
<path d="M10533 5155 c-90 -39 -97 -175 -10 -222 29 -16 70 -18 477 -18 496 0
491 -1 524 69 21 45 20 84 -4 124 -38 61 -44 62 -522 62 -349 -1 -439 -4 -465
-15z"/>
<path d="M3132 5020 c-41 -25 -96 -135 -117 -235 -66 -313 113 -623 422 -732
l78 -28 750 -7 c739 -7 859 -12 902 -36 59 -33 73 -127 28 -181 -14 -16 -34
-32 -43 -35 -9 -3 -91 -13 -182 -21 -202 -19 -253 -39 -334 -126 -97 -104
-124 -242 -75 -374 31 -82 121 -173 204 -205 84 -32 341 -42 411 -15 78 30
107 112 64 183 -32 52 -69 62 -236 62 l-146 0 -34 34 c-24 24 -34 43 -34 65 0
39 24 87 49 101 11 5 91 16 178 24 87 8 178 22 203 31 108 38 172 96 221 198
35 75 45 147 29 223 -35 167 -152 277 -325 305 -45 8 -338 14 -830 18 -550 5
-770 11 -797 19 -64 21 -153 89 -192 145 -86 125 -96 263 -29 396 44 86 33
153 -30 191 -41 26 -93 25 -135 0z"/>
<path d="M12269 5001 c-50 -50 -51 -87 -6 -179 30 -62 32 -75 32 -167 0 -93
-2 -105 -32 -166 -40 -81 -102 -140 -191 -182 l-67 -32 -760 -6 c-458 -4 -789
-11 -832 -17 -136 -21 -237 -93 -295 -210 -30 -61 -33 -74 -33 -162 0 -84 3
-102 29 -158 37 -80 123 -162 200 -191 36 -13 111 -26 216 -36 89 -8 169 -19
178 -24 49 -26 70 -83 49 -133 -25 -60 -34 -63 -218 -68 l-168 -5 -31 -30
c-45 -43 -57 -93 -34 -141 37 -73 54 -79 242 -79 184 0 218 7 302 57 216 130
224 454 14 599 -67 46 -115 59 -288 75 -91 9 -171 21 -187 30 -67 34 -77 131
-20 188 26 25 42 32 98 39 38 4 408 11 823 15 l755 7 73 27 c162 59 287 164
359 303 54 105 73 181 73 297 0 110 -17 187 -64 283 -40 80 -72 105 -136 105
-36 0 -48 -6 -81 -39z"/>
<path d="M5795 4647 c-61 -61 -53 -154 17 -197 30 -18 50 -20 228 -20 176 0
198 2 227 20 74 45 83 139 19 197 l-36 33 -211 0 -211 0 -33 -33z"/>
<path d="M9288 4664 c-36 -19 -58 -63 -58 -114 0 -32 7 -48 34 -78 l34 -37
198 -3 c215 -4 238 1 279 50 45 54 27 151 -35 183 -42 22 -412 21 -452 -1z"/>
<path d="M5503 3255 c-88 -38 -97 -166 -16 -221 25 -17 48 -19 228 -19 218 0
234 3 271 60 23 35 21 100 -3 133 -40 55 -71 62 -268 62 -132 -1 -189 -5 -212
-15z"/>
<path d="M9621 3252 c-102 -55 -84 -199 29 -233 21 -6 105 -9 210 -7 196 3
225 12 255 74 20 42 19 72 -3 113 -34 63 -63 71 -272 71 -160 0 -190 -2 -219
-18z"/>
</g>
</svg>
