<svg width="557" height="578" viewBox="0 0 557 578" fill="none" xmlns="http://www.w3.org/2000/svg">
<g clip-path="url(#clip0_1_42)">
<circle cx="278" cy="289" r="250" fill="black"/>
<path d="M278.456 538.913C416.227 538.913 527.913 427.227 527.913 289.456C527.913 151.685 416.227 40 278.456 40C140.685 40 29 151.685 29 289.456C29 427.227 140.685 538.913 278.456 538.913Z" fill="#9C8A00" fill-opacity="0.283626" stroke="#5C5C5C" stroke-width="12.8081" stroke-linecap="round"/>
<path d="M176.144 354.647C214.768 354.647 246.079 323.336 246.079 284.711C246.079 246.087 214.768 214.776 176.144 214.776C137.519 214.776 106.208 246.087 106.208 284.711C106.208 323.336 137.519 354.647 176.144 354.647Z" fill="white"/>
<path d="M380.769 354.647C419.394 354.647 450.705 323.336 450.705 284.711C450.705 246.087 419.394 214.776 380.769 214.776C342.145 214.776 310.834 246.087 310.834 284.711C310.834 323.336 342.145 354.647 380.769 354.647Z" fill="white"/>
</g>
<defs>
<clipPath id="clip0_1_42">
<rect width="557" height="578" fill="white"/>
</clipPath>
</defs>
</svg>
